<mxfile host="app.diagrams.net" modified="2020-07-22T08:25:17.322Z" agent="5.0 (Macintosh; Intel Mac OS X 10_15_5) AppleWebKit/605.1.15 (KHTML, like Gecko) Version/13.1.1 Safari/605.1.15" etag="71Tw5U-CFFf2ydN-UKoF" version="13.4.9" type="github">
  <diagram id="hlMxlW0CxIH1wyV9X59p" name="Page-1">
    <mxGraphModel dx="1298" dy="774" grid="1" gridSize="10" guides="1" tooltips="1" connect="1" arrows="1" fold="1" page="1" pageScale="1" pageWidth="827" pageHeight="1169" math="0" shadow="0">
      <root>
        <mxCell id="0" />
        <mxCell id="1" parent="0" />
        <mxCell id="lSIXImj21uUPo0jYy-fi-9" value="&amp;nbsp;Enter" style="text;html=1;strokeColor=none;fillColor=none;align=center;verticalAlign=middle;whiteSpace=wrap;rounded=0;" vertex="1" parent="1">
          <mxGeometry x="360" y="80" width="40" height="20" as="geometry" />
        </mxCell>
        <mxCell id="lSIXImj21uUPo0jYy-fi-12" style="edgeStyle=orthogonalEdgeStyle;rounded=0;orthogonalLoop=1;jettySize=auto;html=1;entryX=0.5;entryY=0;entryDx=0;entryDy=0;" edge="1" parent="1" source="lSIXImj21uUPo0jYy-fi-10" target="lSIXImj21uUPo0jYy-fi-11">
          <mxGeometry relative="1" as="geometry" />
        </mxCell>
        <mxCell id="lSIXImj21uUPo0jYy-fi-10" value="Get APP version request" style="ellipse;whiteSpace=wrap;html=1;" vertex="1" parent="1">
          <mxGeometry x="330" y="120" width="100" height="40" as="geometry" />
        </mxCell>
        <mxCell id="lSIXImj21uUPo0jYy-fi-16" style="edgeStyle=orthogonalEdgeStyle;rounded=0;orthogonalLoop=1;jettySize=auto;html=1;entryX=1;entryY=0.5;entryDx=0;entryDy=0;" edge="1" parent="1" source="lSIXImj21uUPo0jYy-fi-11" target="lSIXImj21uUPo0jYy-fi-13">
          <mxGeometry relative="1" as="geometry" />
        </mxCell>
        <mxCell id="lSIXImj21uUPo0jYy-fi-17" value="False" style="edgeLabel;html=1;align=center;verticalAlign=middle;resizable=0;points=[];" vertex="1" connectable="0" parent="lSIXImj21uUPo0jYy-fi-16">
          <mxGeometry x="0.2208" relative="1" as="geometry">
            <mxPoint as="offset" />
          </mxGeometry>
        </mxCell>
        <mxCell id="lSIXImj21uUPo0jYy-fi-22" style="edgeStyle=orthogonalEdgeStyle;rounded=0;orthogonalLoop=1;jettySize=auto;html=1;entryX=0.5;entryY=0;entryDx=0;entryDy=0;" edge="1" parent="1" source="lSIXImj21uUPo0jYy-fi-11">
          <mxGeometry relative="1" as="geometry">
            <mxPoint x="480" y="260" as="targetPoint" />
          </mxGeometry>
        </mxCell>
        <mxCell id="lSIXImj21uUPo0jYy-fi-24" value="True" style="edgeLabel;html=1;align=center;verticalAlign=middle;resizable=0;points=[];" vertex="1" connectable="0" parent="lSIXImj21uUPo0jYy-fi-22">
          <mxGeometry x="-0.4743" y="1" relative="1" as="geometry">
            <mxPoint as="offset" />
          </mxGeometry>
        </mxCell>
        <mxCell id="lSIXImj21uUPo0jYy-fi-11" value="ok?" style="rhombus;whiteSpace=wrap;html=1;" vertex="1" parent="1">
          <mxGeometry x="355" y="180" width="50" height="50" as="geometry" />
        </mxCell>
        <mxCell id="lSIXImj21uUPo0jYy-fi-21" style="edgeStyle=orthogonalEdgeStyle;rounded=0;orthogonalLoop=1;jettySize=auto;html=1;" edge="1" parent="1" source="lSIXImj21uUPo0jYy-fi-13">
          <mxGeometry relative="1" as="geometry">
            <mxPoint x="330" y="140" as="targetPoint" />
            <Array as="points">
              <mxPoint x="267" y="140" />
            </Array>
          </mxGeometry>
        </mxCell>
        <mxCell id="lSIXImj21uUPo0jYy-fi-13" value="Error Screen" style="whiteSpace=wrap;html=1;aspect=fixed;" vertex="1" parent="1">
          <mxGeometry x="240" y="177.5" width="55" height="55" as="geometry" />
        </mxCell>
        <mxCell id="lSIXImj21uUPo0jYy-fi-20" style="edgeStyle=orthogonalEdgeStyle;rounded=0;orthogonalLoop=1;jettySize=auto;html=1;entryX=0.5;entryY=0;entryDx=0;entryDy=0;" edge="1" parent="1" target="lSIXImj21uUPo0jYy-fi-10">
          <mxGeometry relative="1" as="geometry">
            <mxPoint x="380" y="100" as="sourcePoint" />
          </mxGeometry>
        </mxCell>
        <mxCell id="lSIXImj21uUPo0jYy-fi-27" style="edgeStyle=orthogonalEdgeStyle;rounded=0;orthogonalLoop=1;jettySize=auto;html=1;entryX=1;entryY=0.5;entryDx=0;entryDy=0;" edge="1" parent="1" source="lSIXImj21uUPo0jYy-fi-25" target="lSIXImj21uUPo0jYy-fi-26">
          <mxGeometry relative="1" as="geometry" />
        </mxCell>
        <mxCell id="lSIXImj21uUPo0jYy-fi-28" value="YES" style="edgeLabel;html=1;align=center;verticalAlign=middle;resizable=0;points=[];" vertex="1" connectable="0" parent="lSIXImj21uUPo0jYy-fi-27">
          <mxGeometry x="0.1771" y="2" relative="1" as="geometry">
            <mxPoint x="9.66" y="-12" as="offset" />
          </mxGeometry>
        </mxCell>
        <mxCell id="lSIXImj21uUPo0jYy-fi-30" style="edgeStyle=orthogonalEdgeStyle;rounded=0;orthogonalLoop=1;jettySize=auto;html=1;entryX=0.5;entryY=0;entryDx=0;entryDy=0;" edge="1" parent="1" source="lSIXImj21uUPo0jYy-fi-25" target="lSIXImj21uUPo0jYy-fi-36">
          <mxGeometry relative="1" as="geometry">
            <mxPoint x="480" y="430" as="targetPoint" />
          </mxGeometry>
        </mxCell>
        <mxCell id="lSIXImj21uUPo0jYy-fi-31" value="NO" style="edgeLabel;html=1;align=center;verticalAlign=middle;resizable=0;points=[];" vertex="1" connectable="0" parent="lSIXImj21uUPo0jYy-fi-30">
          <mxGeometry x="0.2078" relative="1" as="geometry">
            <mxPoint y="-24.29" as="offset" />
          </mxGeometry>
        </mxCell>
        <mxCell id="lSIXImj21uUPo0jYy-fi-25" value="need &lt;br&gt;update?" style="rhombus;whiteSpace=wrap;html=1;" vertex="1" parent="1">
          <mxGeometry x="440" y="260" width="80" height="80" as="geometry" />
        </mxCell>
        <mxCell id="lSIXImj21uUPo0jYy-fi-32" style="edgeStyle=orthogonalEdgeStyle;rounded=0;orthogonalLoop=1;jettySize=auto;html=1;entryX=0.5;entryY=0;entryDx=0;entryDy=0;" edge="1" parent="1" source="lSIXImj21uUPo0jYy-fi-26" target="lSIXImj21uUPo0jYy-fi-36">
          <mxGeometry relative="1" as="geometry">
            <mxPoint x="480" y="430" as="targetPoint" />
            <Array as="points">
              <mxPoint x="430" y="300" />
              <mxPoint x="430" y="395" />
              <mxPoint x="490" y="395" />
            </Array>
          </mxGeometry>
        </mxCell>
        <mxCell id="lSIXImj21uUPo0jYy-fi-33" value="Skip update" style="edgeLabel;html=1;align=center;verticalAlign=middle;resizable=0;points=[];" vertex="1" connectable="0" parent="lSIXImj21uUPo0jYy-fi-32">
          <mxGeometry x="-0.375" y="2" relative="1" as="geometry">
            <mxPoint x="-2" y="28" as="offset" />
          </mxGeometry>
        </mxCell>
        <mxCell id="lSIXImj21uUPo0jYy-fi-26" value="Update screen" style="whiteSpace=wrap;html=1;aspect=fixed;" vertex="1" parent="1">
          <mxGeometry x="350" y="280" width="40" height="40" as="geometry" />
        </mxCell>
        <mxCell id="lSIXImj21uUPo0jYy-fi-37" style="edgeStyle=orthogonalEdgeStyle;rounded=0;orthogonalLoop=1;jettySize=auto;html=1;" edge="1" parent="1" source="lSIXImj21uUPo0jYy-fi-36">
          <mxGeometry relative="1" as="geometry">
            <mxPoint x="400" y="520" as="targetPoint" />
          </mxGeometry>
        </mxCell>
        <mxCell id="lSIXImj21uUPo0jYy-fi-38" value="YES" style="edgeLabel;html=1;align=center;verticalAlign=middle;resizable=0;points=[];" vertex="1" connectable="0" parent="lSIXImj21uUPo0jYy-fi-37">
          <mxGeometry x="-0.2754" y="19" relative="1" as="geometry">
            <mxPoint as="offset" />
          </mxGeometry>
        </mxCell>
        <mxCell id="lSIXImj21uUPo0jYy-fi-45" style="edgeStyle=orthogonalEdgeStyle;rounded=0;orthogonalLoop=1;jettySize=auto;html=1;" edge="1" parent="1" source="lSIXImj21uUPo0jYy-fi-36" target="lSIXImj21uUPo0jYy-fi-44">
          <mxGeometry relative="1" as="geometry" />
        </mxCell>
        <mxCell id="lSIXImj21uUPo0jYy-fi-36" value="isLoggedIn?" style="rhombus;whiteSpace=wrap;html=1;" vertex="1" parent="1">
          <mxGeometry x="440" y="430" width="100" height="50" as="geometry" />
        </mxCell>
        <mxCell id="lSIXImj21uUPo0jYy-fi-41" style="edgeStyle=orthogonalEdgeStyle;rounded=0;orthogonalLoop=1;jettySize=auto;html=1;entryX=0.5;entryY=0;entryDx=0;entryDy=0;" edge="1" parent="1" source="lSIXImj21uUPo0jYy-fi-39" target="lSIXImj21uUPo0jYy-fi-40">
          <mxGeometry relative="1" as="geometry" />
        </mxCell>
        <mxCell id="lSIXImj21uUPo0jYy-fi-39" value="getShopper" style="ellipse;whiteSpace=wrap;html=1;" vertex="1" parent="1">
          <mxGeometry x="340" y="520" width="120" height="20" as="geometry" />
        </mxCell>
        <mxCell id="lSIXImj21uUPo0jYy-fi-42" style="edgeStyle=orthogonalEdgeStyle;rounded=0;orthogonalLoop=1;jettySize=auto;html=1;entryX=0.5;entryY=1;entryDx=0;entryDy=0;" edge="1" parent="1" source="lSIXImj21uUPo0jYy-fi-40" target="lSIXImj21uUPo0jYy-fi-13">
          <mxGeometry relative="1" as="geometry" />
        </mxCell>
        <mxCell id="lSIXImj21uUPo0jYy-fi-43" value="False" style="edgeLabel;html=1;align=center;verticalAlign=middle;resizable=0;points=[];" vertex="1" connectable="0" parent="lSIXImj21uUPo0jYy-fi-42">
          <mxGeometry x="0.1409" y="-2" relative="1" as="geometry">
            <mxPoint as="offset" />
          </mxGeometry>
        </mxCell>
        <mxCell id="lSIXImj21uUPo0jYy-fi-46" value="TRUE" style="edgeStyle=orthogonalEdgeStyle;rounded=0;orthogonalLoop=1;jettySize=auto;html=1;" edge="1" parent="1" source="lSIXImj21uUPo0jYy-fi-40">
          <mxGeometry relative="1" as="geometry">
            <mxPoint x="400" y="650" as="targetPoint" />
          </mxGeometry>
        </mxCell>
        <mxCell id="lSIXImj21uUPo0jYy-fi-40" value="ok?" style="rhombus;whiteSpace=wrap;html=1;" vertex="1" parent="1">
          <mxGeometry x="375" y="560" width="50" height="50" as="geometry" />
        </mxCell>
        <mxCell id="lSIXImj21uUPo0jYy-fi-64" style="edgeStyle=orthogonalEdgeStyle;rounded=0;orthogonalLoop=1;jettySize=auto;html=1;entryX=1;entryY=0.5;entryDx=0;entryDy=0;" edge="1" parent="1" source="lSIXImj21uUPo0jYy-fi-44" target="lSIXImj21uUPo0jYy-fi-39">
          <mxGeometry relative="1" as="geometry">
            <Array as="points">
              <mxPoint x="600" y="530" />
            </Array>
          </mxGeometry>
        </mxCell>
        <mxCell id="lSIXImj21uUPo0jYy-fi-65" value="SignIn" style="edgeLabel;html=1;align=center;verticalAlign=middle;resizable=0;points=[];" vertex="1" connectable="0" parent="lSIXImj21uUPo0jYy-fi-64">
          <mxGeometry x="0.273" y="-2" relative="1" as="geometry">
            <mxPoint as="offset" />
          </mxGeometry>
        </mxCell>
        <mxCell id="lSIXImj21uUPo0jYy-fi-44" value="LoginScreen" style="whiteSpace=wrap;html=1;aspect=fixed;fillColor=#dae8fc;strokeColor=#6c8ebf;" vertex="1" parent="1">
          <mxGeometry x="560" y="415" width="80" height="80" as="geometry" />
        </mxCell>
        <mxCell id="lSIXImj21uUPo0jYy-fi-48" style="edgeStyle=orthogonalEdgeStyle;rounded=0;orthogonalLoop=1;jettySize=auto;html=1;" edge="1" parent="1" source="lSIXImj21uUPo0jYy-fi-47">
          <mxGeometry relative="1" as="geometry">
            <mxPoint x="400" y="800" as="targetPoint" />
          </mxGeometry>
        </mxCell>
        <mxCell id="lSIXImj21uUPo0jYy-fi-57" value="Active" style="edgeLabel;html=1;align=center;verticalAlign=middle;resizable=0;points=[];" vertex="1" connectable="0" parent="lSIXImj21uUPo0jYy-fi-48">
          <mxGeometry x="0.1665" y="-1" relative="1" as="geometry">
            <mxPoint as="offset" />
          </mxGeometry>
        </mxCell>
        <mxCell id="lSIXImj21uUPo0jYy-fi-50" style="edgeStyle=orthogonalEdgeStyle;rounded=0;orthogonalLoop=1;jettySize=auto;html=1;" edge="1" parent="1" source="lSIXImj21uUPo0jYy-fi-47">
          <mxGeometry relative="1" as="geometry">
            <mxPoint x="320" y="750" as="targetPoint" />
            <Array as="points">
              <mxPoint x="400" y="750" />
            </Array>
          </mxGeometry>
        </mxCell>
        <mxCell id="lSIXImj21uUPo0jYy-fi-52" value="Declined" style="edgeLabel;html=1;align=center;verticalAlign=middle;resizable=0;points=[];" vertex="1" connectable="0" parent="lSIXImj21uUPo0jYy-fi-50">
          <mxGeometry x="0.1586" y="-3" relative="1" as="geometry">
            <mxPoint as="offset" />
          </mxGeometry>
        </mxCell>
        <mxCell id="lSIXImj21uUPo0jYy-fi-54" value="Pending" style="edgeStyle=orthogonalEdgeStyle;rounded=0;orthogonalLoop=1;jettySize=auto;html=1;" edge="1" parent="1" source="lSIXImj21uUPo0jYy-fi-47" target="lSIXImj21uUPo0jYy-fi-55">
          <mxGeometry relative="1" as="geometry">
            <mxPoint x="440" y="750" as="targetPoint" />
            <Array as="points">
              <mxPoint x="400" y="750" />
            </Array>
          </mxGeometry>
        </mxCell>
        <mxCell id="lSIXImj21uUPo0jYy-fi-59" style="edgeStyle=orthogonalEdgeStyle;rounded=0;orthogonalLoop=1;jettySize=auto;html=1;" edge="1" parent="1" source="lSIXImj21uUPo0jYy-fi-47">
          <mxGeometry relative="1" as="geometry">
            <mxPoint x="690" y="760" as="targetPoint" />
          </mxGeometry>
        </mxCell>
        <mxCell id="lSIXImj21uUPo0jYy-fi-60" value="Draft" style="edgeLabel;html=1;align=center;verticalAlign=middle;resizable=0;points=[];" vertex="1" connectable="0" parent="lSIXImj21uUPo0jYy-fi-59">
          <mxGeometry x="-0.5378" y="-4" relative="1" as="geometry">
            <mxPoint x="56.21" y="-14" as="offset" />
          </mxGeometry>
        </mxCell>
        <mxCell id="lSIXImj21uUPo0jYy-fi-47" value="Status" style="rhombus;whiteSpace=wrap;html=1;" vertex="1" parent="1">
          <mxGeometry x="360" y="650" width="80" height="80" as="geometry" />
        </mxCell>
        <mxCell id="lSIXImj21uUPo0jYy-fi-82" value="Logout" style="edgeStyle=orthogonalEdgeStyle;rounded=0;orthogonalLoop=1;jettySize=auto;html=1;" edge="1" parent="1" source="lSIXImj21uUPo0jYy-fi-53">
          <mxGeometry relative="1" as="geometry">
            <mxPoint x="110" y="750" as="targetPoint" />
          </mxGeometry>
        </mxCell>
        <mxCell id="lSIXImj21uUPo0jYy-fi-53" value="Declined screen" style="rounded=0;whiteSpace=wrap;html=1;" vertex="1" parent="1">
          <mxGeometry x="200" y="720" width="120" height="60" as="geometry" />
        </mxCell>
        <mxCell id="lSIXImj21uUPo0jYy-fi-83" value="Logout" style="edgeStyle=orthogonalEdgeStyle;rounded=0;orthogonalLoop=1;jettySize=auto;html=1;" edge="1" parent="1" source="lSIXImj21uUPo0jYy-fi-55">
          <mxGeometry relative="1" as="geometry">
            <mxPoint x="680" y="750" as="targetPoint" />
          </mxGeometry>
        </mxCell>
        <mxCell id="lSIXImj21uUPo0jYy-fi-55" value="PendingScreen" style="rounded=0;whiteSpace=wrap;html=1;" vertex="1" parent="1">
          <mxGeometry x="490" y="720" width="120" height="60" as="geometry" />
        </mxCell>
        <mxCell id="lSIXImj21uUPo0jYy-fi-58" value="Other app flow" style="ellipse;shape=cloud;whiteSpace=wrap;html=1;" vertex="1" parent="1">
          <mxGeometry x="340" y="790" width="120" height="80" as="geometry" />
        </mxCell>
        <mxCell id="lSIXImj21uUPo0jYy-fi-62" style="edgeStyle=orthogonalEdgeStyle;rounded=0;orthogonalLoop=1;jettySize=auto;html=1;" edge="1" parent="1" source="lSIXImj21uUPo0jYy-fi-61">
          <mxGeometry relative="1" as="geometry">
            <mxPoint x="560" y="889.9999999999998" as="targetPoint" />
          </mxGeometry>
        </mxCell>
        <mxCell id="lSIXImj21uUPo0jYy-fi-63" value="Yes" style="edgeLabel;html=1;align=center;verticalAlign=middle;resizable=0;points=[];" vertex="1" connectable="0" parent="lSIXImj21uUPo0jYy-fi-62">
          <mxGeometry x="-0.4386" y="1" relative="1" as="geometry">
            <mxPoint as="offset" />
          </mxGeometry>
        </mxCell>
        <mxCell id="lSIXImj21uUPo0jYy-fi-68" value="No" style="edgeStyle=orthogonalEdgeStyle;rounded=0;orthogonalLoop=1;jettySize=auto;html=1;" edge="1" parent="1" source="lSIXImj21uUPo0jYy-fi-61">
          <mxGeometry relative="1" as="geometry">
            <mxPoint x="690" y="879.9999999999998" as="targetPoint" />
          </mxGeometry>
        </mxCell>
        <mxCell id="lSIXImj21uUPo0jYy-fi-61" value="From Registration?" style="rhombus;whiteSpace=wrap;html=1;" vertex="1" parent="1">
          <mxGeometry x="610" y="760" width="160" height="60" as="geometry" />
        </mxCell>
        <mxCell id="lSIXImj21uUPo0jYy-fi-73" style="edgeStyle=orthogonalEdgeStyle;rounded=0;orthogonalLoop=1;jettySize=auto;html=1;" edge="1" parent="1" source="lSIXImj21uUPo0jYy-fi-67" target="lSIXImj21uUPo0jYy-fi-75">
          <mxGeometry relative="1" as="geometry">
            <mxPoint x="350" y="980" as="targetPoint" />
          </mxGeometry>
        </mxCell>
        <mxCell id="lSIXImj21uUPo0jYy-fi-74" value="Name and last name step" style="edgeLabel;html=1;align=center;verticalAlign=middle;resizable=0;points=[];" vertex="1" connectable="0" parent="lSIXImj21uUPo0jYy-fi-73">
          <mxGeometry x="-0.1413" y="-1" relative="1" as="geometry">
            <mxPoint as="offset" />
          </mxGeometry>
        </mxCell>
        <mxCell id="lSIXImj21uUPo0jYy-fi-77" style="edgeStyle=orthogonalEdgeStyle;rounded=0;orthogonalLoop=1;jettySize=auto;html=1;entryX=0.5;entryY=0;entryDx=0;entryDy=0;" edge="1" parent="1" source="lSIXImj21uUPo0jYy-fi-67" target="lSIXImj21uUPo0jYy-fi-76">
          <mxGeometry relative="1" as="geometry" />
        </mxCell>
        <mxCell id="lSIXImj21uUPo0jYy-fi-78" value="Shop selector step" style="edgeLabel;html=1;align=center;verticalAlign=middle;resizable=0;points=[];" vertex="1" connectable="0" parent="lSIXImj21uUPo0jYy-fi-77">
          <mxGeometry x="0.3233" relative="1" as="geometry">
            <mxPoint as="offset" />
          </mxGeometry>
        </mxCell>
        <mxCell id="lSIXImj21uUPo0jYy-fi-67" value="Step?" style="rhombus;whiteSpace=wrap;html=1;" vertex="1" parent="1">
          <mxGeometry x="520" y="890" width="80" height="80" as="geometry" />
        </mxCell>
        <mxCell id="lSIXImj21uUPo0jYy-fi-70" value="Logout" style="edgeStyle=orthogonalEdgeStyle;rounded=0;orthogonalLoop=1;jettySize=auto;html=1;" edge="1" parent="1" source="lSIXImj21uUPo0jYy-fi-69">
          <mxGeometry relative="1" as="geometry">
            <mxPoint x="800" y="910" as="targetPoint" />
          </mxGeometry>
        </mxCell>
        <mxCell id="lSIXImj21uUPo0jYy-fi-71" style="edgeStyle=orthogonalEdgeStyle;rounded=0;orthogonalLoop=1;jettySize=auto;html=1;entryX=0.5;entryY=0;entryDx=0;entryDy=0;" edge="1" parent="1" source="lSIXImj21uUPo0jYy-fi-69" target="lSIXImj21uUPo0jYy-fi-67">
          <mxGeometry relative="1" as="geometry" />
        </mxCell>
        <mxCell id="lSIXImj21uUPo0jYy-fi-72" value="Registration" style="edgeLabel;html=1;align=center;verticalAlign=middle;resizable=0;points=[];" vertex="1" connectable="0" parent="lSIXImj21uUPo0jYy-fi-71">
          <mxGeometry x="0.2924" relative="1" as="geometry">
            <mxPoint as="offset" />
          </mxGeometry>
        </mxCell>
        <mxCell id="lSIXImj21uUPo0jYy-fi-69" value="Show alert about registration not finished" style="rounded=0;whiteSpace=wrap;html=1;" vertex="1" parent="1">
          <mxGeometry x="670" y="880" width="70" height="60" as="geometry" />
        </mxCell>
        <mxCell id="lSIXImj21uUPo0jYy-fi-79" value="" style="edgeStyle=orthogonalEdgeStyle;rounded=0;orthogonalLoop=1;jettySize=auto;html=1;" edge="1" parent="1" source="lSIXImj21uUPo0jYy-fi-75" target="lSIXImj21uUPo0jYy-fi-76">
          <mxGeometry relative="1" as="geometry" />
        </mxCell>
        <mxCell id="lSIXImj21uUPo0jYy-fi-75" value="&lt;span style=&quot;font-size: 11px ; background-color: rgb(255 , 255 , 255)&quot;&gt;Name and last name step screen&lt;/span&gt;" style="rounded=0;whiteSpace=wrap;html=1;" vertex="1" parent="1">
          <mxGeometry x="280" y="1030" width="120" height="60" as="geometry" />
        </mxCell>
        <mxCell id="lSIXImj21uUPo0jYy-fi-81" style="edgeStyle=orthogonalEdgeStyle;rounded=0;orthogonalLoop=1;jettySize=auto;html=1;entryX=0;entryY=0.5;entryDx=0;entryDy=0;" edge="1" parent="1" source="lSIXImj21uUPo0jYy-fi-76" target="lSIXImj21uUPo0jYy-fi-80">
          <mxGeometry relative="1" as="geometry">
            <mxPoint x="560" y="1059.9999999999998" as="targetPoint" />
          </mxGeometry>
        </mxCell>
        <mxCell id="lSIXImj21uUPo0jYy-fi-76" value="Shop selector screen" style="rounded=0;whiteSpace=wrap;html=1;" vertex="1" parent="1">
          <mxGeometry x="420" y="1030" width="120" height="60" as="geometry" />
        </mxCell>
        <mxCell id="lSIXImj21uUPo0jYy-fi-84" style="edgeStyle=orthogonalEdgeStyle;rounded=0;orthogonalLoop=1;jettySize=auto;html=1;entryX=0.07;entryY=0.4;entryDx=0;entryDy=0;entryPerimeter=0;" edge="1" parent="1" source="lSIXImj21uUPo0jYy-fi-80" target="lSIXImj21uUPo0jYy-fi-58">
          <mxGeometry relative="1" as="geometry">
            <Array as="points">
              <mxPoint x="650" y="1140" />
              <mxPoint x="150" y="1140" />
              <mxPoint x="150" y="822" />
            </Array>
          </mxGeometry>
        </mxCell>
        <mxCell id="lSIXImj21uUPo0jYy-fi-80" value="Finish registration screen" style="rounded=0;whiteSpace=wrap;html=1;" vertex="1" parent="1">
          <mxGeometry x="570" y="1030" width="160" height="60" as="geometry" />
        </mxCell>
      </root>
    </mxGraphModel>
  </diagram>
</mxfile>
